<?xml version="1.0" encoding="UTF-8" standalone="no"?>
<!-- Generator: Adobe Illustrator 16.0.0, SVG Export Plug-In . SVG Version: 6.00 Build 0)  -->

<svg
   version="1.1"
   id="Capa_1"
   x="0px"
   y="0px"
   width="133.87659"
   height="185.06503"
   viewBox="0 0 133.87659 185.06503"
   xml:space="preserve"
   sodipodi:docname="logo-v2-favicon.svg"
   inkscape:version="1.2.1 (9c6d41e, 2022-07-14)"
   xmlns:inkscape="http://www.inkscape.org/namespaces/inkscape"
   xmlns:sodipodi="http://sodipodi.sourceforge.net/DTD/sodipodi-0.dtd"
   xmlns="http://www.w3.org/2000/svg"
   xmlns:svg="http://www.w3.org/2000/svg"><defs
   id="defs229" /><sodipodi:namedview
   id="namedview227"
   pagecolor="#ffffff"
   bordercolor="#000000"
   borderopacity="0.25"
   inkscape:showpageshadow="2"
   inkscape:pageopacity="0.0"
   inkscape:pagecheckerboard="0"
   inkscape:deskcolor="#d1d1d1"
   showgrid="false"
   inkscape:zoom="0.8654983"
   inkscape:cx="269.78678"
   inkscape:cy="128.82752"
   inkscape:window-width="1309"
   inkscape:window-height="851"
   inkscape:window-x="0"
   inkscape:window-y="25"
   inkscape:window-maximized="0"
   inkscape:current-layer="g224" />
<g
   id="g224"
   transform="translate(-3.4575544,-3.9671066)">
	<path
   style="fill:#357F44;fill-opacity:1"
   d="m 123.755,106.491 c -4.279,-0.578 -8.263,0.585 -11.393,2.854 L 84.776,81.6 c -0.868,-0.873 -1.065,-2.21 -0.487,-3.297 l 0.018,-0.034 c 0.52,-0.977 1.536,-1.587 2.643,-1.587 h 14.926 c 2.783,0 5.393,1.329 7.044,3.568 3.112,4.22 8.275,6.833 14.025,6.349 7.347,-0.617 14.003,-7.523 14.369,-14.886 0.452,-9.065 -6.764,-16.557 -15.729,-16.557 -5.213,0 -9.827,2.537 -12.69,6.44 -1.641,2.238 -4.271,3.535 -7.045,3.535 H 90.132 c -2.775,0 -5.404,-1.297 -7.046,-3.535 -2.863,-3.904 -7.477,-6.44 -12.689,-6.44 -1.635,0 -3.208,0.251 -4.688,0.715 -3.095,0.971 -6.474,0.04 -8.761,-2.261 L 36.695,33.242 C 34.352,30.885 33.334,27.431 34.293,24.248 34.937,22.114 35.138,19.79 34.788,17.376 33.776,10.39 28.051,4.86 21.036,4.07 11.52,3 3.458,10.417 3.458,19.718 c 0,5.213 2.536,9.827 6.44,12.69 2.237,1.641 3.534,4.27 3.534,7.045 v 11.718 c 0,2.775 -1.297,5.404 -3.534,7.045 -3.904,2.863 -6.44,7.477 -6.44,12.69 0,5.213 2.536,9.827 6.44,12.69 2.237,1.642 3.534,4.271 3.534,7.045 v 11.718 c 0,2.775 -1.297,5.404 -3.534,7.045 -3.904,2.863 -6.44,7.477 -6.44,12.69 0,5.213 2.536,9.827 6.44,12.69 2.237,1.641 3.534,4.27 3.534,7.045 v 11.718 c 0,2.799 -1.34,5.42 -3.59,7.086 -4.208,3.114 -6.81,8.27 -6.327,14.01 0.617,7.346 7.523,14.002 14.886,14.369 9.064,0.452 16.557,-6.764 16.557,-15.73 0,-1.506 -0.213,-2.962 -0.609,-4.34 -0.875,-3.045 0.015,-6.324 2.242,-8.577 L 57.22,139.498 c 2.268,-2.293 5.611,-3.214 8.704,-2.299 1.417,0.42 2.918,0.645 4.473,0.645 5.213,0 9.826,-2.536 12.689,-6.44 1.642,-2.238 4.271,-3.535 7.045,-3.535 h 11.718 c 2.775,0 5.404,1.297 7.045,3.535 2.863,3.904 7.478,6.44 12.69,6.44 9.277,0 16.682,-8.021 15.654,-17.507 -0.768,-7.1 -6.406,-12.89 -13.483,-13.846 z m -98.772,50.383 c 0,-3.245 0,-10.264 0,-15.095 0,-2.713 1.224,-5.327 3.423,-6.916 1.291,-0.932 2.44,-2.046 3.391,-3.325 1.71,-2.302 4.395,-3.669 7.262,-3.669 4.813,0 11.686,0 14.861,0 1.065,0 2.04,0.591 2.535,1.535 l 0.017,0.032 c 0.544,1.037 0.354,2.307 -0.469,3.14 l -26.058,26.358 c -0.873,0.883 -2.217,1.059 -3.311,0.471 -0.045,-0.024 -0.09,-0.048 -0.135,-0.071 -0.922,-0.483 -1.516,-1.419 -1.516,-2.46 z M 29.512,34.146 55.934,60.72 c 0.771,0.775 0.985,1.961 0.487,2.934 -0.006,0.01 -0.011,0.02 -0.016,0.03 -0.447,0.876 -1.325,1.447 -2.309,1.447 H 39.062 c -2.857,0 -5.536,-1.357 -7.247,-3.645 -0.935,-1.249 -2.049,-2.353 -3.306,-3.275 -2.229,-1.635 -3.526,-4.248 -3.526,-7.012 0,-4.855 0,-11.901 0,-15.079 0,-1.026 0.572,-1.961 1.483,-2.432 l 0.031,-0.016 c 1.001,-0.517 2.221,-0.325 3.015,0.474 z m 9.692,42.536 c 4.851,0 11.586,0 14.717,0 1.065,0 2.039,0.591 2.534,1.535 l 0.017,0.032 c 0.544,1.037 0.354,2.307 -0.469,3.14 l -25.975,26.273 c -0.909,0.919 -2.314,1.132 -3.454,0.523 l -0.026,-0.014 c -0.963,-0.515 -1.564,-1.517 -1.564,-2.609 0,-3.306 0,-10.243 0,-15.015 0,-2.692 1.216,-5.282 3.399,-6.855 1.313,-0.946 2.494,-2.065 3.442,-3.377 1.695,-2.343 4.487,-3.633 7.379,-3.633 z m 31.192,29.662 c -5.223,0 -9.844,2.546 -12.706,6.462 -1.628,2.227 -4.245,3.513 -7.003,3.513 H 35.481 c -0.95,0 -1.82,-0.533 -2.251,-1.38 l -0.015,-0.029 c -0.466,-0.914 -0.293,-2.023 0.428,-2.752 L 57.27,88.26 c 2.236,-2.263 5.54,-3.186 8.587,-2.269 1.437,0.433 2.961,0.666 4.54,0.666 1.533,0 3.016,-0.221 4.417,-0.63 3.031,-0.887 6.304,0.021 8.53,2.261 l 23.746,23.883 c 0.74,0.744 0.921,1.877 0.449,2.814 l -0.015,0.029 c -0.402,0.8 -1.222,1.305 -2.117,1.305 H 90.104 c -2.758,0 -5.375,-1.286 -7.003,-3.513 -2.862,-3.916 -7.482,-6.462 -12.705,-6.462 z"
   id="path182" />
	
</g>
</svg>
